<svg xmlns="http://www.w3.org/2000/svg" width="90px" viewBox="0 0 400 400" style="background: #fff">
    <path d="M230.455 76.455 C 224.977 81.932,228.521 87.115,241.001 91.880 C 245.621 93.645,251.225 96.582,253.453 98.408 C 265.182 108.019,277.000 108.945,277.000 100.253 C 277.000 96.330,275.735 94.876,265.960 87.567 C 250.478 75.991,235.581 71.328,230.455 76.455 M112.500 77.687 C 84.550 85.278,77.479 89.420,81.056 96.105 C 86.005 105.353,125.000 95.037,125.000 84.481 C 125.000 79.286,118.874 75.956,112.500 77.687 M58.000 112.967 C 53.325 113.388,46.800 114.715,43.500 115.916 C 40.200 117.116,35.707 118.552,33.515 119.107 C 26.444 120.897,25.631 122.387,24.568 135.500 C 24.301 138.800,24.064 142.488,24.041 143.697 C 24.000 145.872,23.946 145.865,18.398 142.947 C 7.514 137.221,0.000 139.048,0.000 147.421 C 0.000 152.481,0.177 152.854,3.250 154.284 C 9.987 157.419,17.328 158.399,20.763 156.622 C 25.104 154.378,25.326 155.041,25.958 172.172 C 26.817 195.460,28.265 196.405,78.000 206.159 C 87.009 207.926,105.748 206.585,113.002 203.655 C 129.744 196.893,135.414 190.336,139.247 173.311 L 141.348 163.978 143.735 166.220 C 146.848 169.145,150.666 169.010,164.000 165.504 C 175.615 162.451,199.141 161.464,211.488 163.512 L 217.475 164.505 218.727 171.411 C 223.425 197.333,272.993 216.313,300.000 202.530 C 321.013 191.806,334.687 178.668,335.712 168.218 C 336.555 159.614,337.199 158.828,342.800 159.553 C 345.666 159.925,352.182 159.386,359.500 158.172 C 366.100 157.077,376.000 155.671,381.500 155.048 C 387.000 154.424,393.413 153.681,395.750 153.396 L 400.000 152.877 400.000 144.810 L 400.000 136.742 392.750 137.433 C 388.762 137.814,377.850 139.259,368.500 140.645 C 340.649 144.773,341.206 144.758,340.504 141.370 C 336.156 120.385,325.680 115.884,275.309 113.361 C 239.410 111.563,239.115 111.594,236.292 117.513 C 235.187 119.832,233.716 121.246,232.050 121.591 C 225.379 122.973,223.336 126.620,221.996 139.539 C 220.816 150.915,220.341 151.745,216.217 149.612 C 203.212 142.887,160.465 146.154,145.250 155.035 L 142.000 156.933 142.000 143.367 C 142.000 124.129,140.996 122.318,128.811 119.574 C 125.340 118.792,120.025 117.444,117.000 116.577 C 107.276 113.793,72.482 111.664,58.000 112.967 M252.423 128.009 C 257.965 128.525,272.142 129.421,283.927 130.001 C 320.965 131.821,326.363 135.232,321.558 153.778 C 320.701 157.084,320.000 160.984,320.000 162.444 C 320.000 169.552,306.837 181.607,291.320 188.711 C 278.177 194.728,251.303 188.068,238.972 175.737 C 234.374 171.139,234.200 169.355,236.847 154.000 C 237.463 150.425,238.245 142.632,238.584 136.682 C 239.114 127.406,239.426 125.949,240.773 126.467 C 241.638 126.798,246.880 127.492,252.423 128.009 M94.292 133.436 C 105.181 135.605,115.371 137.000,120.335 137.000 C 126.834 137.000,127.184 139.165,124.423 162.292 C 121.746 184.705,115.326 190.315,92.273 190.382 C 73.767 190.436,43.866 183.675,42.616 179.154 C 42.365 178.244,41.857 168.215,41.488 156.866 C 40.734 133.716,40.501 134.509,47.947 134.842 C 50.451 134.954,55.650 134.402,59.500 133.617 C 68.735 131.732,85.307 131.646,94.292 133.436 M152.000 176.265 C 144.475 179.983,131.586 218.591,133.410 231.952 C 134.735 241.664,147.003 257.008,157.500 262.083 C 174.163 270.138,204.703 258.616,201.414 245.515 C 199.785 239.022,194.888 238.630,185.589 244.248 C 172.590 252.103,163.492 250.188,153.986 237.597 C 147.706 229.280,148.901 216.661,157.908 196.205 C 164.595 181.016,161.759 171.443,152.000 176.265 M151.065 313.936 C 131.775 316.315,138.351 331.274,157.936 329.566 C 163.339 329.095,167.837 329.357,173.063 330.447 C 183.034 332.527,185.264 332.412,187.826 329.686 C 197.203 319.703,176.437 310.806,151.065 313.936 "
          stroke="none" fill="#000" fill-rule="evenodd"/>
</svg>